<svg width="45" height="51" viewBox="0 0 45 51" fill="none" xmlns="http://www.w3.org/2000/svg">
<path fill-rule="evenodd" clip-rule="evenodd" d="M0 35V0H11.3C14.0333 0 16.2667 0.45 18 1.35C19.7333 2.25 21.0167 3.48333 21.85 5.05C22.2474 5.79707 22.55 6.58205 22.7579 7.40492C26.4372 8.05466 29.3012 9.48635 31.35 11.7C32.121 12.5236 32.7906 13.4277 33.359 14.4124C35.3158 14.4872 37.0295 14.8997 38.5 15.65C40.1667 16.4833 41.45 17.6333 42.35 19.1C43.2833 20.5667 43.7667 22.2333 43.8 24.1H39.4C39.4 23.1333 39.15 22.1833 38.65 21.25C38.15 20.2833 37.3833 19.5 36.35 18.9C35.9352 18.6511 35.4746 18.4539 34.968 18.3082C35.4893 20.1981 35.75 22.2954 35.75 24.6C35.75 26.7143 35.5224 28.6553 35.0671 30.423C35.436 30.5455 35.8136 30.6712 36.2 30.8C37.8667 31.4 39.3667 32.1 40.7 32.9C42.0333 33.7 43.0667 34.7333 43.8 36C44.5667 37.2667 44.95 38.8833 44.95 40.85C44.95 42.5167 44.5167 44.1 43.65 45.6C42.7833 47.0667 41.4667 48.2667 39.7 49.2C37.9667 50.1333 35.7833 50.6 33.15 50.6C30.5833 50.6 28.35 50.1333 26.45 49.2C24.55 48.2667 23.0833 46.9667 22.05 45.3C21.4053 44.2601 20.9616 43.1164 20.7192 41.8688C19.7755 41.9563 18.7858 42 17.75 42H7V20.55H4.2V35H0ZM25.0475 41.0688C25.1987 41.8493 25.4662 42.593 25.85 43.3C26.4833 44.4333 27.4 45.35 28.6 46.05C29.8333 46.7167 31.35 47.05 33.15 47.05C35.5167 47.05 37.35 46.4833 38.65 45.35C39.95 44.2167 40.6 42.8 40.6 41.1C40.6 39.7 40.3 38.5833 39.7 37.75C39.1 36.8833 38.2833 36.1833 37.25 35.65C36.25 35.1167 35.0833 34.65 33.75 34.25C33.7022 34.2353 33.6543 34.2205 33.6063 34.2057C32.988 35.3556 32.2359 36.4037 31.35 37.35C29.7477 39.0628 27.6469 40.3024 25.0475 41.0688ZM30.9877 29.0786C31.2626 27.7073 31.4 26.2144 31.4 24.6C31.4 22.1792 31.1049 20.0421 30.5146 18.1888C29.4994 18.4124 28.6112 18.8328 27.85 19.45C26.65 20.45 26.05 21.8333 26.05 23.6C26.05 25.1 26.4667 26.25 27.3 27.05C28.1667 27.85 29.3667 28.5167 30.9 29.05C30.9291 29.0595 30.9584 29.069 30.9877 29.0786ZM28.8638 14.8713C28.1312 15.0688 27.4432 15.3284 26.8 15.65C25.1667 16.45 23.9 17.5833 23 19.05C22.1 20.4833 21.6667 22.1333 21.7 24C21.7 26.2333 22.35 28.05 23.65 29.45C24.95 30.8167 26.95 31.9667 29.65 32.9C29.6631 32.9046 29.6762 32.9092 29.6893 32.9137C28.8037 34.5678 27.4906 35.8799 25.75 36.85C23.75 37.95 21.05 38.5 17.65 38.5H11.2V20.55H11.4L18.5 35H23.45L15.8 19.95C18.3 19.2167 20.1333 17.9667 21.3 16.2C22.3385 14.671 22.9277 12.9798 23.0674 11.1263C24.0697 11.3967 24.9639 11.7546 25.75 12.2C27.013 12.904 28.0509 13.7944 28.8638 14.8713ZM16.9 5.4C17.3809 5.8679 17.768 6.40168 18.0614 7.00134C17.9581 7.00044 17.8543 7 17.75 7H7V17.25H4.2V3.55H10.95C13.7167 3.55 15.7 4.16667 16.9 5.4ZM11.2 10.5V17.2488C13.7973 17.2173 15.6973 16.5677 16.9 15.3C18.0884 14.0473 18.7043 12.4542 18.7475 10.5206C18.3902 10.5069 18.0243 10.5 17.65 10.5H11.2Z" fill="#333333"/>
</svg>
